<svg width="980" height="760" viewBox="0 0 980 760" fill="none" xmlns="http://www.w3.org/2000/svg">
  <defs>
    <linearGradient id="a" x1="74" y1="42" x2="878" y2="692" gradientUnits="userSpaceOnUse">
      <stop stop-color="#0D0D0D"/>
      <stop offset="0.55" stop-color="#1B140C"/>
      <stop offset="1" stop-color="#090909"/>
    </linearGradient>
    <linearGradient id="line" x1="130" y1="164" x2="806" y2="600" gradientUnits="userSpaceOnUse">
      <stop stop-color="#F0BC66" stop-opacity="0.82"/>
      <stop offset="1" stop-color="#F0BC66" stop-opacity="0.08"/>
    </linearGradient>
    <radialGradient id="b" cx="0" cy="0" r="1" gradientUnits="userSpaceOnUse" gradientTransform="translate(742 132) rotate(136) scale(320 280)">
      <stop stop-color="#F5CA81" stop-opacity="0.45"/>
      <stop offset="1" stop-color="#F5CA81" stop-opacity="0"/>
    </radialGradient>
  </defs>

  <rect width="980" height="760" fill="url(#a)"/>
  <rect width="980" height="760" fill="url(#b)"/>

  <path d="M72 588L288 220L506 420L726 140L904 588H72Z" fill="#0E0E0E" stroke="#F0BD6A" stroke-opacity="0.42"/>
  <path d="M120 596L308 304L504 482L674 250L864 596H120Z" fill="#121212" stroke="#F0BD6A" stroke-opacity="0.35"/>

  <path d="M160 556C248 516 312 430 414 390C504 356 610 372 696 322C760 286 826 218 900 176" stroke="url(#line)" stroke-width="2"/>
  <path d="M160 602C276 576 346 526 434 484C544 430 644 438 742 390C802 360 848 318 900 286" stroke="#F3C778" stroke-opacity="0.25"/>

  <g stroke="#F4CC84" stroke-opacity="0.2">
    <path d="M120 640H860"/>
    <path d="M120 600H860"/>
    <path d="M120 560H860"/>
    <path d="M120 520H860"/>
    <path d="M120 480H860"/>
    <path d="M120 440H860"/>
  </g>

  <rect x="82" y="96" width="816" height="568" rx="34" stroke="#F1C16D" stroke-opacity="0.3"/>
  <text x="128" y="156" fill="#F8D79E" fill-opacity="0.82" font-family="Georgia, serif" font-size="30" letter-spacing="2">LONGEVITY INFRASTRUCTURE</text>
</svg>
